<mxfile
  host="Electron" 
  agent="Mozilla/5.0 (Macintosh; Intel Mac OS X 10_15_7) AppleWebKit/537.36 (KHTML, like Gecko) draw.io/25.0.2 Chrome/128.0.6613.186 Electron/32.2.5 Safari/537.36" 
  version="25.0.2"
  >
  <diagram
    name="-"
    >
    <mxGraphModel
      grid="1" 
      gridSize="10" 
      guides="1" 
      tooltips="1" 
      connect="1" 
      arrows="1" 
      fold="1" 
      page="1" 
      pageScale="1" 
      pageWidth="1" 
      pageHeight="1" 
      math="0" 
      shadow="0"
      >
      <root>
        <mxCell
          id="page"
          />
        <mxCell
          id="root" 
          parent="page"
          />
        <mxCell
          style="verticalAlign=top;aspect=fixed;align=center;spacingLeft=5;spacingRight=5;spacingBottom=5;strokeColor=none;" 
          id="shape_" 
          parent="root" 
          value=" " 
          vertex="1"
          >
          <mxGeometry
            as="geometry" 
            width="340" 
            height="120" 
            x="0" 
            y="0"
            />
          </mxCell>
        <mxCell
          style="verticalAlign=top;aspect=fixed;align=center;spacingLeft=5;spacingRight=5;spacingBottom=5;noLabel=1;opacity=0;" 
          id="column" 
          parent="shape_" 
          value="Column" 
          vertex="1"
          >
          <mxGeometry
            as="geometry" 
            width="90" 
            height="100" 
            x="10" 
            y="10"
            />
          </mxCell>
        <mxCell
          style="rounded=1;whiteSpace=wrap;verticalAlign=middle;align=center;" 
          id="entity_a" 
          parent="column" 
          value="A" 
          vertex="1"
          >
          <mxGeometry
            width="20" 
            height="20" 
            as="geometry" 
            x="0" 
            y="0"
            />
          </mxCell>
        <mxCell
          style="rounded=1;whiteSpace=wrap;verticalAlign=middle;align=center;" 
          id="entity_b" 
          parent="column" 
          value="B" 
          vertex="1"
          >
          <mxGeometry
            width="20" 
            height="20" 
            as="geometry" 
            x="70" 
            y="0"
            />
          </mxCell>
        <mxCell
          style="verticalAlign=top;aspect=fixed;align=center;spacingLeft=5;spacingRight=5;spacingBottom=5;noLabel=1;opacity=0;" 
          id="row" 
          parent="shape_" 
          value="Row" 
          vertex="1"
          >
          <mxGeometry
            as="geometry" 
            width="20" 
            height="100" 
            x="150" 
            y="10"
            />
          </mxCell>
        <mxCell
          style="rounded=1;whiteSpace=wrap;verticalAlign=middle;align=center;" 
          id="entity_c" 
          parent="row" 
          value="C" 
          vertex="1"
          >
          <mxGeometry
            width="20" 
            height="20" 
            as="geometry" 
            x="0" 
            y="0"
            />
          </mxCell>
        <mxCell
          style="rounded=1;whiteSpace=wrap;verticalAlign=middle;align=center;" 
          id="entity_d" 
          parent="row" 
          value="D" 
          vertex="1"
          >
          <mxGeometry
            width="20" 
            height="20" 
            as="geometry" 
            x="0" 
            y="70"
            />
          </mxCell>
        <mxCell
          style="verticalAlign=top;aspect=fixed;align=center;spacingLeft=5;spacingRight=5;spacingBottom=5;noLabel=1;opacity=0;" 
          id="column_2" 
          parent="shape_" 
          value="Column" 
          vertex="1"
          >
          <mxGeometry
            as="geometry" 
            width="110" 
            height="100" 
            x="220" 
            y="10"
            />
          </mxCell>
        <mxCell
          style="verticalAlign=top;aspect=fixed;align=center;spacingLeft=5;spacingRight=5;spacingBottom=5;noLabel=1;opacity=0;" 
          id="row_2" 
          parent="column_2" 
          value="Row" 
          vertex="1"
          >
          <mxGeometry
            width="30" 
            height="100" 
            as="geometry" 
            x="0" 
            y="0"
            />
          </mxCell>
        <mxCell
          style="rounded=1;whiteSpace=wrap;verticalAlign=middle;align=center;" 
          id="entity_e" 
          parent="row_2" 
          value="E" 
          vertex="1"
          >
          <mxGeometry
            width="20" 
            height="20" 
            as="geometry" 
            x="5" 
            y="5"
            />
          </mxCell>
        <mxCell
          style="rounded=1;whiteSpace=wrap;verticalAlign=middle;align=center;strokeColor=transparent;fontColor=transparent;" 
          id="invisible_f" 
          parent="row_2" 
          value="F" 
          vertex="1"
          >
          <mxGeometry
            width="10" 
            height="10" 
            as="geometry" 
            x="10" 
            y="85"
            />
          </mxCell>
        <mxCell
          style="verticalAlign=top;aspect=fixed;align=center;spacingLeft=5;spacingRight=5;spacingBottom=5;noLabel=1;opacity=0;" 
          id="row_3" 
          parent="column_2" 
          value="Row" 
          vertex="1"
          >
          <mxGeometry
            width="30" 
            height="100" 
            as="geometry" 
            x="80" 
            y="0"
            />
          </mxCell>
        <mxCell
          style="rounded=1;whiteSpace=wrap;verticalAlign=middle;align=center;strokeColor=transparent;fontColor=transparent;" 
          id="invisible_g" 
          parent="row_3" 
          value="G" 
          vertex="1"
          >
          <mxGeometry
            width="10" 
            height="10" 
            as="geometry" 
            x="10" 
            y="5"
            />
          </mxCell>
        <mxCell
          style="rounded=1;whiteSpace=wrap;verticalAlign=middle;align=center;" 
          id="entity_h" 
          parent="row_3" 
          value="H" 
          vertex="1"
          >
          <mxGeometry
            width="20" 
            height="20" 
            as="geometry" 
            x="5" 
            y="75"
            />
          </mxCell>
        <mxCell
          id="logical_connector_circle_arrow_logicalconnectorcirclearrow" 
          source="entity_a" 
          target="entity_b" 
          parent="root" 
          edge="1" 
          style="html=1;labelBackgroundColor=#ffffff;jettySize=auto;orthogonalLoop=1;fontSize=14;rounded=0;jumpStyle=gap;edgeStyle=orthogonalEdgeStyle;startArrow=oval;endArrow=block;startFill=1;endFill=1;strokeWidth=2;dashed=1;sourcePerimeterSpacing=3;targetPerimeterSpacing=3;"
          >
          <mxGeometry
            relative="1" 
            as="geometry"
            />
          </mxCell>
        <mxCell
          id="logical_connector_circle_arrow_2" 
          source="entity_c" 
          target="entity_d" 
          parent="root" 
          edge="1" 
          style="html=1;labelBackgroundColor=#ffffff;jettySize=auto;orthogonalLoop=1;fontSize=14;rounded=0;jumpStyle=gap;edgeStyle=orthogonalEdgeStyle;startArrow=oval;endArrow=block;startFill=1;endFill=1;strokeWidth=2;dashed=1;sourcePerimeterSpacing=3;targetPerimeterSpacing=3;"
          >
          <mxGeometry
            relative="1" 
            as="geometry"
            />
          </mxCell>
        <mxCell
          id="logical_connector_circle_arrow_3" 
          source="entity_e" 
          target="entity_h" 
          parent="root" 
          edge="1" 
          style="html=1;labelBackgroundColor=#ffffff;jettySize=auto;orthogonalLoop=1;fontSize=14;rounded=0;jumpStyle=gap;edgeStyle=orthogonalEdgeStyle;startArrow=oval;endArrow=block;startFill=1;endFill=1;strokeWidth=2;dashed=1;sourcePerimeterSpacing=3;targetPerimeterSpacing=3;"
          >
          <mxGeometry
            relative="1" 
            as="geometry"
            />
          </mxCell>
        </root>
      </mxGraphModel>
    </diagram>
  </mxfile>